<svg width="24" height="24" viewBox="0 0 24 24" fill="none" xmlns="http://www.w3.org/2000/svg">
<path d="M8.1948 13.6429H20.1811C20.6635 13.6429 21.1262 13.4513 21.4673 13.1102C21.8084 12.769 22 12.3064 22 11.824C22 11.3416 21.8084 10.879 21.4673 10.5379C21.1262 10.1968 20.6635 10.0052 20.1811 10.0052L8.1948 10.0052L10.5593 7.64062C10.855 7.29059 11.0077 6.84185 10.9868 6.38411C10.966 5.92638 10.7731 5.49338 10.4468 5.17169C10.1205 4.84999 9.68484 4.6633 9.22686 4.64893C8.76888 4.63457 8.32235 4.79359 7.97654 5.09421L2.51994 10.5508C2.18667 10.8908 2 11.3479 2 11.824C2 12.3001 2.18667 12.7572 2.51994 13.0972L7.97654 18.5538C8.32235 18.8544 8.76888 19.0135 9.22686 18.9991C9.68484 18.9847 10.1205 18.7981 10.4468 18.4764C10.7731 18.1547 10.966 17.7217 10.9868 17.2639C11.0077 16.8062 10.855 16.3575 10.5593 16.0074L8.1948 13.6429Z" fill="#2C252A"/>
</svg>
