<svg width="24" height="24" viewBox="0 0 24 24" fill="none" xmlns="http://www.w3.org/2000/svg">
<path fill-rule="evenodd" clip-rule="evenodd" d="M15.3 10.3C15.4925 10.1556 15.7308 10.0855 15.9709 10.1025C16.211 10.1196 16.4369 10.2227 16.6071 10.3929C16.7773 10.5631 16.8804 10.789 16.8975 11.0291C16.9145 11.2692 16.8444 11.5074 16.7 11.7L12.7 15.7C12.513 15.8832 12.2617 15.9859 12 15.9859C11.7382 15.9859 11.4869 15.8832 11.3 15.7L7.29998 11.7C7.15555 11.5074 7.08543 11.2692 7.10249 11.0291C7.11956 10.789 7.22266 10.5631 7.39287 10.3929C7.56308 10.2227 7.78898 10.1196 8.02909 10.1025C8.2692 10.0855 8.5074 10.1556 8.69998 10.3L12 13.59L15.3 10.29V10.3Z" fill="#2C252A"/>
</svg>
