<svg width="24" height="24" viewBox="0 0 24 24" fill="none" xmlns="http://www.w3.org/2000/svg">
<path fill-rule="evenodd" clip-rule="evenodd" d="M17.5985 15.7367C17.8471 15.9854 17.9868 16.3226 17.9868 16.6742C17.9868 17.0258 17.8471 17.363 17.5985 17.6117C17.3498 17.8603 17.0126 18 16.661 18C16.3094 18 15.9722 17.8603 15.7235 17.6117L12 13.875L8.26328 17.6117C8.01464 17.8603 7.67742 18 7.3258 18C6.97418 18 6.63695 17.8603 6.38832 17.6117C6.13968 17.363 6 17.0258 6 16.6742C6 16.5001 6.03429 16.3277 6.10092 16.1668C6.16755 16.006 6.26521 15.8598 6.38832 15.7367L10.125 12.0132L6.40152 8.26328C6.15289 8.01464 6.0132 7.67742 6.0132 7.3258C6.0132 6.97417 6.15289 6.63695 6.40152 6.38832C6.65016 6.13968 6.98738 6 7.339 6C7.69063 6 8.02785 6.13968 8.27648 6.38832L12.0132 10.125L15.7367 6.38832C15.8598 6.26521 16.006 6.16755 16.1668 6.10092C16.3277 6.03429 16.5001 6 16.6742 6C16.8483 6 17.0207 6.03429 17.1816 6.10092C17.3424 6.16755 17.4886 6.26521 17.6117 6.38832C17.7348 6.51143 17.8325 6.65758 17.8991 6.81844C17.9657 6.97929 18 7.15169 18 7.3258C18 7.4999 17.9657 7.67231 17.8991 7.83316C17.8325 7.99401 17.7348 8.14017 17.6117 8.26328L13.875 12L17.6117 15.7235L17.5985 15.7367Z" fill="black"/>
</svg>
