<svg width="24" height="24" viewBox="0 0 24 24" fill="none" xmlns="http://www.w3.org/2000/svg">
<path d="M16.3199 14.9L17.4199 16C17.8199 15.98 18.2499 16.13 18.5599 16.44L21.5599 19.44C21.8249 19.7244 21.9692 20.1005 21.9623 20.4891C21.9554 20.8777 21.798 21.2484 21.5232 21.5233C21.2484 21.7981 20.8776 21.9555 20.489 21.9624C20.1004 21.9692 19.7243 21.825 19.4399 21.56L16.4399 18.56C16.2907 18.4115 16.1744 18.2333 16.0986 18.0368C16.0228 17.8404 15.9892 17.6303 15.9999 17.42L14.8999 16.32C13.2927 17.5686 11.2699 18.1576 9.24357 17.9672C7.21724 17.7767 5.33967 16.8211 3.99318 15.2949C2.6467 13.7687 1.93253 11.7867 1.99609 9.7524C2.05966 7.71812 2.89619 5.78456 4.33534 4.34541C5.77449 2.90626 7.70805 2.06973 9.74233 2.00617C11.7766 1.9426 13.7586 2.65677 15.2848 4.00326C16.811 5.34974 17.7666 7.22731 17.9571 9.25364C18.1475 11.28 17.5585 13.3027 16.3099 14.91L16.3199 14.9ZM9.99994 16C11.5912 16 13.1174 15.3679 14.2426 14.2427C15.3678 13.1174 15.9999 11.5913 15.9999 10C15.9999 8.40871 15.3678 6.88259 14.2426 5.75737C13.1174 4.63215 11.5912 4.00001 9.99994 4.00001C8.40864 4.00001 6.88252 4.63215 5.7573 5.75737C4.63208 6.88259 3.99994 8.40871 3.99994 10C3.99994 11.5913 4.63208 13.1174 5.7573 14.2427C6.88252 15.3679 8.40864 16 9.99994 16V16Z" fill="#2C252A"/>
</svg>
