<svg width="24" height="24" viewBox="0 0 24 24" fill="none" xmlns="http://www.w3.org/2000/svg">
<path d="M18 13V20C18 20.2652 17.8946 20.5196 17.7071 20.7071C17.5196 20.8946 17.2652 21 17 21C16.7348 21 16.4804 20.8946 16.2929 20.7071C16.1053 20.5196 16 20.2652 16 20V13H13C12.8043 12.9972 12.6137 12.9371 12.4518 12.827C12.2899 12.717 12.1639 12.5618 12.0894 12.3808C12.0148 12.1998 11.9951 12.0009 12.0325 11.8088C12.0699 11.6167 12.163 11.4398 12.3 11.3L16.3 7.29999C16.4869 7.11676 16.7382 7.01413 17 7.01413C17.2617 7.01413 17.5131 7.11676 17.7 7.29999L21.7 11.3C21.837 11.4398 21.93 11.6167 21.9675 11.8088C22.0049 12.0009 21.9852 12.1998 21.9106 12.3808C21.8361 12.5618 21.7101 12.717 21.5482 12.827C21.3863 12.9371 21.1957 12.9972 21 13H18Z" fill="black"/>
<path d="M3 3H16C16.2652 3 16.5196 3.10536 16.7071 3.29289C16.8946 3.48043 17 3.73478 17 4C17 4.26522 16.8946 4.51957 16.7071 4.70711C16.5196 4.89464 16.2652 5 16 5H3C2.73478 5 2.48043 4.89464 2.29289 4.70711C2.10536 4.51957 2 4.26522 2 4C2 3.73478 2.10536 3.48043 2.29289 3.29289C2.48043 3.10536 2.73478 3 3 3V3ZM3 7H12C12.2652 7 12.5196 7.10536 12.7071 7.29289C12.8946 7.48043 13 7.73478 13 8C13 8.26522 12.8946 8.51957 12.7071 8.70711C12.5196 8.89464 12.2652 9 12 9H3C2.73478 9 2.48043 8.89464 2.29289 8.70711C2.10536 8.51957 2 8.26522 2 8C2 7.73478 2.10536 7.48043 2.29289 7.29289C2.48043 7.10536 2.73478 7 3 7V7ZM3 11H8C8.26522 11 8.51957 11.1054 8.70711 11.2929C8.89464 11.4804 9 11.7348 9 12C9 12.2652 8.89464 12.5196 8.70711 12.7071C8.51957 12.8946 8.26522 13 8 13H3C2.73478 13 2.48043 12.8946 2.29289 12.7071C2.10536 12.5196 2 12.2652 2 12C2 11.7348 2.10536 11.4804 2.29289 11.2929C2.48043 11.1054 2.73478 11 3 11V11Z" fill="#B7B7B7"/>
</svg>
