<svg width="24" height="24" viewBox="0 0 24 24" fill="none" xmlns="http://www.w3.org/2000/svg">
<path d="M5 3H19C19.5304 3 20.0391 3.21071 20.4142 3.58579C20.7893 3.96086 21 4.46957 21 5V19C21 19.5304 20.7893 20.0391 20.4142 20.4142C20.0391 20.7893 19.5304 21 19 21H5C4.46957 21 3.96086 20.7893 3.58579 20.4142C3.21071 20.0391 3 19.5304 3 19V5C3 3.9 3.9 3 5 3ZM16 11C16.5304 11 17.0391 10.7893 17.4142 10.4142C17.7893 10.0391 18 9.53043 18 9C18 8.46957 17.7893 7.96086 17.4142 7.58579C17.0391 7.21071 16.5304 7 16 7C15.4696 7 14.9609 7.21071 14.5858 7.58579C14.2107 7.96086 14 8.46957 14 9C14 9.53043 14.2107 10.0391 14.5858 10.4142C14.9609 10.7893 15.4696 11 16 11ZM8 17C8.53043 17 9.03914 16.7893 9.41421 16.4142C9.78929 16.0391 10 15.5304 10 15C10 14.4696 9.78929 13.9609 9.41421 13.5858C9.03914 13.2107 8.53043 13 8 13C7.46957 13 6.96086 13.2107 6.58579 13.5858C6.21071 13.9609 6 14.4696 6 15C6 15.5304 6.21071 16.0391 6.58579 16.4142C6.96086 16.7893 7.46957 17 8 17Z" fill="#B7B7B7"/>
<path d="M9.73 14H17C17.2652 14 17.5196 14.1054 17.7071 14.2929C17.8946 14.4804 18 14.7348 18 15C18 15.2652 17.8946 15.5196 17.7071 15.7071C17.5196 15.8946 17.2652 16 17 16H9.73C9.90554 15.696 9.99795 15.3511 9.99795 15C9.99795 14.6489 9.90554 14.304 9.73 14ZM14.27 8C14.0945 8.30404 14.0021 8.64893 14.0021 9C14.0021 9.35107 14.0945 9.69596 14.27 10H7C6.73478 10 6.48043 9.89464 6.29289 9.70711C6.10536 9.51957 6 9.26522 6 9C6 8.73478 6.10536 8.48043 6.29289 8.29289C6.48043 8.10536 6.73478 8 7 8H14.27Z" fill="#2C252A"/>
</svg>
